<svg width="120" height="60" viewBox="0 0 120 60" fill="none" xmlns="http://www.w3.org/2000/svg">
<rect width="120" height="60" fill="#F8F8F8"/>
<path d="M60 30C60 25.5 63.5 22 68 22C72.5 22 76 25.5 76 30C76 34.5 72.5 38 68 38C63.5 38 60 34.5 60 30ZM68 24C64.6863 24 62 26.6863 62 30C62 33.3137 64.6863 36 68 36C71.3137 36 74 33.3137 74 30C74 26.6863 71.3137 24 68 24Z" fill="#FF5A5F"/>
<path d="M40 30C40 25.5 43.5 22 48 22C52.5 22 56 25.5 56 30C56 34.5 52.5 38 48 38C43.5 38 40 34.5 40 30ZM48 24C44.6863 24 42 26.6863 42 30C42 33.3137 44.6863 36 48 36C51.3137 36 54 33.3137 54 30C54 26.6863 51.3137 24 48 24Z" fill="#FF5A5F"/>
</svg>