<svg width="120" height="60" viewBox="0 0 120 60" fill="none" xmlns="http://www.w3.org/2000/svg">
<rect width="120" height="60" fill="#F8F8F8"/>
<path d="M100.5 30.75C100.5 29.7 100.425 28.65 100.275 27.675H61.5V34.95H84.45C83.475 39.9 79.95 43.2 75.3 43.2C69.3 43.2 64.35 38.25 64.35 32.25C64.35 26.25 69.3 21.3 75.3 21.3C78.6 21.3 81.45 22.65 83.625 24.75L89.175 19.2C85.875 16.05 81.075 14.25 75.3 14.25C64.05 14.25 54.75 23.55 54.75 34.5C54.75 45.45 64.05 54.75 75.3 54.75C86.025 54.75 94.05 46.95 94.05 35.1C94.05 33.9 93.975 32.7 93.75 31.5H61.5V27.675H100.275C100.425 28.65 100.5 29.7 100.5 30.75Z" fill="#4285F4"/>
<path d="M39.45 34.5C39.45 35.7 39.6 36.9 39.825 38.1H75.3C75.3 37.05 75.225 36 75.075 34.95H39.45Z" fill="#34A853"/>
<path d="M39.45 34.5C39.45 35.7 39.6 36.9 39.825 38.1H75.3C75.3 37.05 75.225 36 75.075 34.95H39.45Z" fill="#FBBC05"/>
<path d="M39.45 34.5C39.45 35.7 39.6 36.9 39.825 38.1H75.3C75.3 37.05 75.225 36 75.075 34.95H39.45Z" fill="#EA4335"/>
</svg>