<svg width="120" height="60" viewBox="0 0 120 60" fill="none" xmlns="http://www.w3.org/2000/svg">
<rect width="120" height="60" fill="#F8F8F8"/>
<path d="M30 30C30 25.5 33.5 22 38 22C42.5 22 46 25.5 46 30C46 34.5 42.5 38 38 38C33.5 38 30 34.5 30 30ZM38 24C34.6863 24 32 26.6863 32 30C32 33.3137 34.6863 36 38 36C41.3137 36 44 33.3137 44 30C44 26.6863 41.3137 24 38 24Z" fill="#6772E5"/>
<path d="M50 30C50 25.5 53.5 22 58 22C62.5 22 66 25.5 66 30C66 34.5 62.5 38 58 38C53.5 38 50 34.5 50 30ZM58 24C54.6863 24 52 26.6863 52 30C52 33.3137 54.6863 36 58 36C61.3137 36 64 33.3137 64 30C64 26.6863 61.3137 24 58 24Z" fill="#6772E5"/>
<path d="M70 30C70 25.5 73.5 22 78 22C82.5 22 86 25.5 86 30C86 34.5 82.5 38 78 38C73.5 38 70 34.5 70 30ZM78 24C74.6863 24 72 26.6863 72 30C72 33.3137 74.6863 36 78 36C81.3137 36 84 33.3137 84 30C84 26.6863 81.3137 24 78 24Z" fill="#6772E5"/>
<path d="M90 30C90 25.5 93.5 22 98 22C102.5 22 106 25.5 106 30C106 34.5 102.5 38 98 38C93.5 38 90 34.5 90 30ZM98 24C94.6863 24 92 26.6863 92 30C92 33.3137 94.6863 36 98 36C101.3137 36 104 33.3137 104 30C104 26.6863 101.3137 24 98 24Z" fill="#6772E5"/>
</svg>